name C:\Users\tom_v\MusculoskeletalSpecialization_revisited\Results\Case_20\motion.mot
datacolumns 32
datarows 14
range 0.00000000 0.06292236
endheader 
time	pelvis_tilt	pelvis_list	pelvis_rotation	pelvis_tx	pelvis_ty	pelvis_tz	hip_flexion_r	hip_adduction_r	hip_rotation_r	knee_angle_r	ankle_angle_r	subtalar_angle_r	mtp_angle_r	hip_flexion_l	hip_adduction_l	hip_rotation_l	knee_angle_l	ankle_angle_l	subtalar_angle_l	mtp_angle_l	lumbar_extension	lumbar_bending	lumbar_rotation	arm_flex_r	arm_add_r	arm_rot_r	elbow_flex_r	arm_flex_l	arm_add_l	arm_rot_l	elbow_flex_l	
          0.00000000	         -7.42071714	         -2.91497842	         14.56467110	          0.00000000	          0.95090223	         -0.02047227	         27.14721105	          2.89101770	         -9.92616045	         -1.15513700	         -5.88125519	        -26.56885070	          2.00590267	         14.78365013	         -6.69633111	          2.36963011	        -61.84677797	         -3.61668552	         12.22589818	         -4.10841526	        -13.02656705	          9.34614291	        -11.52181353	        -22.95951529	         -1.71418833	        -13.08582350	         29.54618428	         10.26706528	        -19.01237911	         -4.95095500	         52.92561509	
          0.00484018	         -7.79698455	         -2.54122181	         13.51386722	          0.04114200	          0.94877510	         -0.02057583	         25.66498585	          3.47481557	         -9.85259271	         -0.75190380	         -7.94796948	        -25.62030740	          3.59717529	         16.74639832	         -6.02911607	          1.71262763	        -63.13064720	         -3.76699123	         11.69799616	         -1.09084796	        -12.28872018	          8.76332234	        -11.15934962	        -12.45116991	         -3.88347113	        -12.25099186	         15.90221042	         11.69225505	        -17.70154781	          1.86000354	         39.62625191	
          0.00968036	         -8.18681985	         -2.08108174	         12.31997565	          0.08226895	          0.94574608	         -0.02090669	         24.19207794	          3.93413856	         -9.16685839	         -0.55637292	         -9.74522263	        -25.72292689	          4.68808393	         18.74391482	         -5.28405113	          0.98155017	        -64.52599821	         -2.94328974	         11.50098183	          1.64049379	        -11.51354642	          8.16224308	        -10.81212426	         -2.92391680	         -6.21858660	        -11.25717002	          5.09183997	         13.44316070	        -15.85216287	         10.09489232	         24.75643184	
          0.01452055	         -8.70079097	         -1.50883150	         11.03531068	          0.12350346	          0.94166626	         -0.02138822	         22.81716195	          4.19390599	         -8.14156992	         -0.53397384	        -11.59730977	        -26.29514784	          5.69664503	         20.89606165	         -4.44279028	          0.18097561	        -66.00777974	         -0.74352127	         11.70177588	         -1.11128467	        -10.63136034	          7.45938269	        -10.50147540	          4.60644125	         -8.65341301	        -11.75837308	          0.13459663	         14.05477350	        -13.17995615	         16.87298691	         11.28944724	
          0.01936073	         -9.37810165	         -0.81762965	          9.69400976	          0.16495163	          0.93670974	         -0.02183688	         21.58820033	          4.24618753	         -6.97881227	         -0.89814560	        -14.58899900	        -27.61025184	          7.16764826	         23.27102520	         -3.54708159	         -0.71924465	        -67.46976167	          0.82193683	         11.70796682	         -4.03889190	         -9.61565211	          6.63462311	        -10.21616447	          9.54887205	        -11.10036014	        -13.10464852	          2.49345046	         12.49120308	        -10.63955436	         19.39393165	          2.36985292	
          0.02420091	        -10.08067329	         -0.40138436	          8.08184174	          0.20647774	          0.93169539	         -0.02165035	         20.58011656	          4.67235533	         -4.28849371	         -3.01376392	        -11.42418703	        -28.92338214	          8.52589235	         25.78638601	         -3.22207497	         -1.81949821	        -68.87440689	          0.97302509	         11.59629173	         -1.21420992	         -8.63405915	          6.15725235	         -9.62335204	         11.67485418	        -13.59324760	        -12.18663042	         12.56419812	          8.57178034	         -9.20400484	         17.65656298	          0.00258039	
          0.02904109	        -10.49430200	         -0.53470628	          6.19072199	          0.24800614	          0.92759187	         -0.02060946	         19.17379861	          5.97699458	          0.01107440	         -5.00765470	         -7.55321182	        -32.18911467	         10.62464034	         28.07920534	         -3.83600315	         -2.93974513	        -70.21546348	          1.58276012	         11.88001957	          1.93916549	         -8.09048280	          6.39033202	         -8.69247987	         11.66195294	        -17.06298023	         -7.31597543	         28.94603927	          1.95025118	         -8.94520660	         10.88551917	          5.59222273	
          0.03388127	        -10.59651778	         -0.76508959	          4.18919888	          0.28938582	          0.92432693	         -0.01904480	         17.21404337	          7.49116922	          4.49515643	         -6.44818769	         -5.65403977	        -36.52128188	         12.73108604	         30.00372162	         -4.73420478	         -3.98803486	        -71.42173197	          3.59793134	         12.29251405	         -1.40246780	         -8.08877867	          6.75224068	         -7.74872063	         11.81856722	        -22.25113005	         -0.16696556	         47.14673235	         -7.82303085	         -8.65757379	         -0.48988098	         19.11540845	
          0.03872145	        -10.55297887	         -0.73194863	          2.25040581	          0.33028090	          0.92154769	         -0.01734675	         15.01683044	          8.44236545	          7.90975360	         -7.85660598	         -3.51310821	        -38.60757357	         14.92859509	         31.79683800	         -5.34493449	         -4.89577274	        -72.42901522	          4.24236180	         12.11501082	         -0.75940433	         -8.38533592	          6.73031259	         -6.90789150	         13.93415463	        -28.54006327	          7.25183768	         63.91711278	        -18.88931313	         -7.53745760	         -8.78533288	         35.38425877	
          0.04356164	        -10.59888698	         -0.47919863	          0.39608361	          0.37058848	          0.91913465	         -0.01557292	         13.04039584	          8.70580033	          9.55499983	         -9.51537846	         -0.35976154	        -37.01171023	         17.59147769	         33.73378631	         -5.67936381	         -5.61409646	        -73.22374306	          4.24140717	         11.99152725	          4.12978377	         -8.60115900	          6.37111356	         -6.02414396	         18.33565136	        -34.67307210	         13.73225213	         78.21942729	        -29.38320833	         -6.64477752	        -12.18383619	         49.63745912	
          0.04840182	        -10.86662236	          0.02761872	         -1.33880666	          0.41052793	          0.91699009	         -0.01361368	         11.44551215	          8.39776868	          9.99178465	        -11.29626800	          2.73999711	        -33.72559231	         20.85686857	         35.89796009	         -5.73838830	         -6.18756291	        -73.74941887	          5.37313393	         12.46812454	          4.94218178	         -8.50640788	          5.65441601	         -5.04155455	         24.22196952	        -39.42913257	         18.16289549	         89.93289381	        -38.87617451	         -6.53192392	        -13.14125855	         60.43356230	
          0.05324200	        -11.34631342	          0.87853846	         -2.91830341	          0.45032810	          0.91511525	         -0.01136164	         10.19256578	          7.58694131	          9.89662257	        -13.04256767	          4.80197534	        -30.55293743	         24.84432867	         38.25610264	         -5.48576298	         -6.72006546	        -73.92099778	          6.45808051	         13.17343143	          5.53655539	         -8.06202742	          4.48288354	         -3.94564076	         30.19257333	        -42.09032607	         19.39667520	         99.16096665	        -47.33580268	         -7.31402085	        -13.14779273	         67.63255585	
          0.05808218	        -12.00696021	          2.05317421	         -4.36519171	          0.49009559	          0.91357819	         -0.00873018	          9.30356744	          6.35804487	          9.48403315	        -14.81472175	          5.71402905	        -27.81265234	         29.51724942	         40.75316784	         -5.01752710	         -7.30195887	        -73.71231288	          7.23399035	         13.91304387	          6.03746259	         -7.28118169	          2.88097628	         -2.68099467	         35.05094067	        -42.52825968	         16.78743732	        106.07426119	        -54.69464817	         -8.96555670	        -12.86586929	         71.23370319	
          0.06292236	        -12.80592244	          3.48930317	         -5.70887786	          0.52987207	          0.91240508	         -0.00578825	          8.79338225	          4.78446494	          8.81174647	        -16.69402994	          5.50749509	        -25.43296777	         34.92334821	         43.32991948	         -4.43594648	         -7.96778878	        -73.14588390	          7.83209364	         14.57544835	          6.29524034	         -6.19858107	          0.95040676	         -1.22561995	         38.77055326	        -41.34766533	         11.51184165	        110.84707998	        -60.79826693	        -11.54347669	        -12.14380481	         71.13251093	
